<svg width="1393" height="391" viewBox="0 0 1393 391" fill="none" xmlns="http://www.w3.org/2000/svg">
<path d="M866.708 257.006V10.5372H734.162V135.55H734.132C714.575 63.4346 648.447 0.00366211 553.643 0.00366211C458.84 0.00366211 381.633 64.8638 361.607 146.833H361.577V10.5372H229.87V206.287C229.87 225.575 227.35 237.308 217.282 248.211C207.214 259.114 193.796 263.302 181.208 263.302C168.62 263.302 155.203 259.104 145.135 248.211C135.066 237.308 132.547 225.575 132.547 206.287V10.5372H0V207.126C0 259.954 10.9081 302.717 46.1419 337.936C73.8271 365.609 118.289 390.763 178.689 390.763C231.54 390.763 277.681 372.315 311.236 336.257C339.671 306.165 354.708 268.768 359.587 235.339H359.617C377.074 322.056 454.64 390.763 553.633 390.763C640.898 390.763 711.776 334.058 734.152 255.147V379.56H980.788V256.996H866.698L866.708 257.006ZM612.163 225.585C603.774 248.221 580.498 263.322 553.653 263.322C515.9 263.322 488.005 233.97 488.005 195.403C488.005 156.837 515.9 127.485 553.653 127.485C580.498 127.485 603.774 142.576 612.163 165.222H734.162V225.595H612.163V225.585Z" fill="#FAFAFA"/>
<path d="M1392.97 257.33H1350.05V379.895H1392.97V257.33ZM1324.29 257.33H1284.8V379.895H1324.29V257.33ZM1255.6 257.33H1219.54V379.895H1255.6V257.33ZM1186.91 257.33H1154.3V379.895H1186.91V257.33ZM1118.22 257.33H1089.04V379.895H1118.22V257.33ZM1049.54 257.33H1023.79V379.895H1049.54V257.33ZM1194.87 78.1506C1172.46 83.957 1155.76 103.865 1154.76 127.84H1154.7V142.281H1144.78V165.537L1023.79 204.833V10.872H1392.97V204.833L1271.99 165.537V142.281H1262.07V127.84H1262.01C1261.01 103.875 1244.3 83.967 1221.89 78.1506L1212.6 43.472H1204.15L1194.85 78.1506H1194.87Z" fill="#9A3BFF"/>
</svg>
